
<svg viewBox="0 0 962 159">
<g>
	<path d="M16.128,140.01c-2.721-0.947-4.965-2.188-6.739-3.724c-1.773-1.538-3.253-3.192-4.433-4.966
		c-1.183-1.773-2.07-3.516-2.66-5.23c-0.593-1.713-1.006-3.221-1.241-4.522c-0.829-4.728-1.006-9.634-0.532-14.719
		c0.471-5.081,1.357-9.692,2.66-13.832c1.419-4.61,3.37-8.628,5.852-12.059c2.483-3.427,5.29-6.384,8.423-8.867
		c3.131-2.482,6.473-4.55,10.02-6.207c3.546-1.654,7.093-3.015,10.64-4.079c8.274-2.364,17.141-3.547,26.6-3.547l31.388-0.177
		c3.192-5.201,6.473-10.698,9.842-16.492c3.37-5.792,6.767-12.059,10.197-18.797c1.535-3.309,1.979-5.733,1.33-7.271
		c-0.651-1.535-1.391-2.599-2.217-3.192c-0.354-0.354-0.651-0.532-0.887-0.532l-0.177-0.177c-2.012-0.945-4.583-1.211-7.714-0.798
		c-3.134,0.416-6.534,1.241-10.197,2.483c-3.666,1.241-7.509,2.837-11.527,4.788c-4.021,1.951-8.01,3.962-11.97,6.029
		c-3.962,2.07-7.714,4.14-11.261,6.207c-3.547,2.07-6.681,3.874-9.398,5.409c-0.948,0.474-1.834,0.887-2.66,1.241
		c-0.709,0.238-1.479,0.416-2.305,0.532c-0.829,0.119-1.538-0.058-2.128-0.532c-0.593-0.471-0.917-1.153-0.975-2.04
		c-0.061-0.887,0.266-2.216,0.975-3.99c0.826-1.773,1.801-3.428,2.926-4.965c1.122-1.535,2.217-2.896,3.281-4.079
		c1.299-1.3,2.541-2.483,3.724-3.547c5.201-4.137,11.111-7.595,17.733-10.374c6.62-2.776,13.181-4.669,19.684-5.675
		c6.5-1.003,12.53-1.064,18.088-0.177c5.556,0.887,9.931,2.926,13.123,6.118c4.256,4.256,5.674,10.227,4.256,17.911
		c-0.474,2.366-1.183,4.73-2.128,7.093c-0.948,2.366-2.07,4.73-3.37,7.093c-0.238,0.355-0.443,0.709-0.621,1.064
		c-0.177,0.355-0.385,0.651-0.621,0.887c-1.418,2.483-2.926,5.054-4.522,7.714c-1.596,2.66-3.223,5.35-4.876,8.068l48.412-0.354
		c0.59-0.826,1.123-1.624,1.596-2.394c0.471-0.768,0.945-1.565,1.418-2.394c5.082-8.157,10.552-16.373,16.403-24.649
		c5.852-8.273,11.616-15.899,17.29-22.876c0.59-0.945,1.242-1.654,1.951-2.128c0.59-0.471,1.269-0.709,2.04-0.709
		c0.768,0,1.565,0.474,2.394,1.419c1.773,2.011,2.896,4.079,3.369,6.207c0.471,2.128-0.296,4.552-2.305,7.271
		c-4.611,6.268-9.133,12.829-13.566,19.684c-4.434,6.858-8.839,13.716-13.211,20.571l15.783-0.177c0.471,0,0.945,0.061,1.418,0.177
		c0.945,0.238,1.122,0.828,0.532,1.773c-1.893,2.837-4.051,5.292-6.473,7.359c-2.425,2.07-4.287,3.577-5.586,4.522
		c-0.355,0.238-0.74,0.416-1.153,0.532c-0.416,0.119-0.74,0.238-0.976,0.354c-0.354,0.119-0.651,0.178-0.886,0.178H168.28
		c-8.158,13.006-15.281,25.952-21.369,38.836c-6.09,12.888-10.671,25.771-13.744,38.659c0,0.234-0.03,0.471-0.088,0.709
		c-0.061,0.235-0.089,0.471-0.089,0.709c-0.354,1.654-0.887,3.162-1.596,4.521c-0.709,1.358-1.892,1.979-3.546,1.863
		c-1.064,0-1.923-0.267-2.571-0.799c-0.651-0.531-1.183-1.152-1.596-1.861c-0.416-0.71-0.74-1.449-0.975-2.217
		c-0.238-0.771-0.355-1.392-0.355-1.862c-0.474-3.312-0.474-6.622,0-9.931c0.471-3.311,1.123-6.268,1.951-8.867
		c1.654-6.265,3.782-12.529,6.384-18.797c2.599-6.266,5.082-11.998,7.448-17.201c3.782-7.803,8.157-15.723,13.123-23.763
		c-7.332,0-15.223,0-23.674,0c-8.454,0-16.819,0.061-25.093,0.177c-4.021,6.029-8.157,12-12.413,17.911
		c-4.256,5.913-8.573,11.558-12.945,16.935c-4.375,5.382-8.72,10.316-13.034,14.809c-4.317,4.494-8.542,8.218-12.679,11.172
		c-1.302,0.944-2.926,1.92-4.877,2.926c-1.951,1.003-4.167,1.92-6.65,2.748c-2.482,0.826-5.204,1.477-8.157,1.951
		c-2.957,0.471-6.09,0.531-9.398,0.178c-1.184-0.119-2.278-0.297-3.281-0.533C18.048,140.48,17.073,140.246,16.128,140.01z
		 M8.857,118.553c-0.119,0.709-0.177,1.538-0.177,2.482c0,0.947,0.116,1.893,0.354,2.838c0.471,2.247,1.064,4.078,1.773,5.497
		c0.826,1.183,1.951,2.247,3.369,3.192c1.419,0.944,3.309,1.535,5.675,1.773c1.418,0.115,3.015,0,4.788-0.355
		c1.773-0.354,3.782-1.125,6.029-2.305c2.244-1.181,5.17-3.016,8.778-5.498c3.605-2.482,7.772-5.968,12.502-10.463
		c4.727-4.49,10.02-10.224,15.872-17.201c5.852-6.974,12.206-15.605,19.063-25.89H57.447c-9.695,0-17.617,1.596-23.763,4.788
		c-6.148,3.192-10.995,7.124-14.542,11.792c-3.546,4.671-6.06,9.665-7.537,14.985C10.126,109.509,9.212,114.297,8.857,118.553z"/>
		
		
	<path d="M235.312,117.666c-0.354,0.238-1.568,0.887-3.635,1.951c-2.07,1.063-4.73,2.336-7.98,3.813
		c-3.253,1.479-7.035,2.956-11.35,4.434c-4.317,1.479-8.839,2.689-13.566,3.635c-3.311,0.828-6.858,1.357-10.64,1.596
		c-5.439,0.471-9.903,0.355-13.389-0.354c-3.488-0.709-6.237-1.534-8.246-2.482c-1.654-0.71-2.896-1.446-3.724-2.217
		c-0.826-0.768-1.419-1.446-1.773-2.039c-0.235-0.472-0.413-0.768-0.532-0.887c-0.59-1.063-0.945-1.95-1.064-2.66
		c-0.116-0.472-0.177-0.825-0.177-1.063c-0.354-2.129-0.324-4.137,0.089-6.029c0.416-1.891,1.036-3.636,1.862-5.232
		c0.829-1.596,1.715-3.014,2.66-4.256c0.948-1.24,1.712-2.217,2.305-2.926c3.547-3.663,7.152-6.708,10.817-9.133
		c3.663-2.422,7.329-4.344,10.995-5.764c3.663-1.418,7.298-2.451,10.906-3.103c3.604-0.648,7.121-1.034,10.551-1.153h0.887h2.482
		h0.177c1.3,0.119,3.073,0.386,5.32,0.799c2.244,0.416,4.079,1.271,5.497,2.57c0.945,0.829,1.712,2.012,2.306,3.547
		c0.709,2.367,0.737,4.584,0.088,6.65c-0.651,2.07-1.507,3.873-2.571,5.408c-2.721,3.431-6.326,6.268-10.817,8.513
		c-4.494,2.247-9.163,4.021-14.009,5.319c-4.849,1.303-9.487,2.217-13.92,2.749c-4.434,0.532-7.892,0.859-10.374,0.976
		c0.59,0.947,1.418,1.685,2.482,2.217c1.064,0.531,2.128,0.917,3.192,1.152c1.3,0.355,2.599,0.532,3.901,0.532
		c1.773,0.238,3.663,0.238,5.675,0c3.309-0.116,6.531-0.472,9.665-1.063c3.131-0.591,6.234-1.358,9.31-2.307
		c5.32-1.653,10.02-3.427,14.098-5.319c4.079-1.89,7.24-3.485,9.487-4.788c0.354-0.235,0.709-0.443,1.064-0.621
		c0.354-0.177,0.648-0.382,0.887-0.62h0.177c0.235-0.235,0.413-0.354,0.532-0.354v-0.178h0.177c1.89-1.18,3.663-2.422,5.32-3.724
		c0.826-0.71,1.596-1.241,2.305-1.597c0.59-0.234,1.153-0.293,1.685-0.177c0.532,0.119,0.798,0.71,0.798,1.773
		c0.116,1.302-0.296,2.897-1.241,4.788c-0.948,1.893-2.957,3.843-6.029,5.852c-0.709,0.594-1.596,1.125-2.66,1.596V117.666z
		 M197.717,94.08c-2.721,1.064-5.262,2.336-7.625,3.813c-2.366,1.479-4.522,3.075-6.473,4.788c-1.951,1.715-3.635,3.43-5.054,5.143
		c-1.419,1.715-2.483,3.281-3.192,4.699c2.128-0.235,5.023-0.621,8.689-1.152c3.663-0.532,7.506-1.27,11.527-2.217
		c4.018-0.945,7.861-2.187,11.527-3.725c3.663-1.535,6.561-3.369,8.689-5.497l1.064-1.063c0.471-0.709,0.826-1.3,1.064-1.773
		c0.59-0.945,0.709-1.951,0.355-3.016c-0.238-0.825-0.74-1.445-1.507-1.861c-0.771-0.413-1.507-0.736-2.217-0.975
		c-1.773-0.355-4.079-0.355-6.916,0C204.81,91.598,201.499,92.546,197.717,94.08z"/>
		
		
	<path d="M249.143,132.03c-0.948,0.238-1.715,0.327-2.305,0.266c-0.593-0.058-1.006-0.089-1.242-0.089
		c-2.718-0.59-4.699-1.712-5.94-3.369c-1.241-1.654-2.156-3.131-2.749-4.434c-0.59-1.063-0.768-2.305-0.532-3.724
		c0-0.71,0.119-1.419,0.354-2.128c0-0.235,0.119-0.59,0.355-1.064c0.238-0.59,0.416-1.092,0.532-1.507
		c0.119-0.413,0.238-0.798,0.355-1.153c1.538-4.018,3.253-7.918,5.143-11.703c0.119-0.236,0.235-0.471,0.354-0.709
		c0.117-0.236,0.236-0.472,0.355-0.71c12.175-22.225,26.245-43.092,42.205-62.599c0.354-0.354,0.768-0.709,1.241-1.064
		c0.945-0.709,1.951-0.709,3.015,0c0.355,0.238,0.915,0.621,1.685,1.153c0.767,0.532,1.565,1.241,2.394,2.128
		c0.826,0.887,1.624,1.893,2.394,3.015c0.768,1.125,1.33,2.336,1.685,3.635c0,0.119-0.031,0.327-0.089,0.621
		c-0.061,0.296-0.208,0.563-0.443,0.798c-6.148,6.029-11.792,12.68-16.936,19.95c-5.143,7.271-9.961,14.63-14.453,22.078
		c-0.238,0.474-0.593,1.063-1.064,1.773c-2.011,3.431-4.021,7.005-6.029,10.729c-2.012,3.724-3.962,7.302-5.852,10.729
		c-0.119,0.354-0.296,0.771-0.532,1.241c-0.709,1.303-0.887,2.248-0.532,2.838c0.355,0.709,1.123,1.006,2.306,0.887
		c1.18-0.117,2.128-0.294,2.837-0.532c1.535-0.354,3.428-0.944,5.675-1.773c2.245-0.825,4.611-1.862,7.093-3.104
		c2.483-1.241,4.993-2.63,7.537-4.167c2.541-1.535,4.877-3.131,7.005-4.788c0.826-0.71,1.596-1.241,2.305-1.597
		c0.59-0.234,1.123-0.293,1.596-0.177c0.471,0.119,0.768,0.71,0.887,1.773c0,1.302-0.474,2.897-1.419,4.788
		c-0.947,1.893-2.956,3.843-6.029,5.852c-1.302,0.828-3.164,2.012-5.586,3.547c-2.424,1.537-5.143,3.104-8.157,4.699
		s-6.207,3.134-9.576,4.611C255.615,130.229,252.334,131.32,249.143,132.03z"/>
		
		
	<path d="M290.814,132.03c-0.948,0.238-1.715,0.327-2.305,0.266c-0.593-0.058-1.006-0.089-1.242-0.089
		c-2.718-0.59-4.699-1.712-5.94-3.369c-1.241-1.654-2.156-3.131-2.749-4.434c-0.59-1.063-0.768-2.305-0.532-3.724
		c0-0.71,0.119-1.419,0.354-2.128c0-0.235,0.119-0.59,0.355-1.064c0.238-0.59,0.416-1.092,0.532-1.507
		c0.119-0.413,0.238-0.798,0.355-1.153c1.538-4.018,3.253-7.918,5.143-11.703c0.119-0.236,0.235-0.471,0.354-0.709
		c0.117-0.236,0.236-0.472,0.355-0.71c12.175-22.225,26.245-43.092,42.205-62.599c0.354-0.354,0.768-0.709,1.241-1.064
		c0.945-0.709,1.951-0.709,3.015,0c0.355,0.238,0.915,0.621,1.685,1.153c0.767,0.532,1.565,1.241,2.394,2.128
		c0.826,0.887,1.624,1.893,2.394,3.015c0.768,1.125,1.33,2.336,1.685,3.635c0,0.119-0.031,0.327-0.089,0.621
		c-0.061,0.296-0.208,0.563-0.443,0.798c-6.148,6.029-11.792,12.68-16.936,19.95c-5.143,7.271-9.961,14.63-14.453,22.078
		c-0.238,0.474-0.593,1.063-1.064,1.773c-2.011,3.431-4.021,7.005-6.029,10.729c-2.012,3.724-3.962,7.302-5.852,10.729
		c-0.119,0.354-0.296,0.771-0.532,1.241c-0.709,1.303-0.887,2.248-0.532,2.838c0.355,0.709,1.123,1.006,2.306,0.887
		c1.18-0.117,2.128-0.294,2.837-0.532c1.535-0.354,3.428-0.944,5.675-1.773c2.245-0.825,4.611-1.862,7.093-3.104
		c2.483-1.241,4.993-2.63,7.537-4.167c2.541-1.535,4.877-3.131,7.005-4.788c0.826-0.71,1.596-1.241,2.305-1.597
		c0.59-0.234,1.123-0.293,1.596-0.177c0.471,0.119,0.768,0.71,0.887,1.773c0,1.302-0.474,2.897-1.419,4.788
		c-0.947,1.893-2.956,3.843-6.029,5.852c-1.302,0.828-3.164,2.012-5.586,3.547c-2.424,1.537-5.143,3.104-8.157,4.699
		s-6.207,3.134-9.576,4.611C297.287,130.229,294.006,131.32,290.814,132.03z"/>
		
	<path d="M320.605,125.114c-0.59-1.063-0.945-1.95-1.064-2.66c-0.116-0.472-0.177-0.825-0.177-1.063
		c-0.355-2.129-0.324-4.137,0.088-6.029c0.416-1.891,1.037-3.636,1.862-5.232c0.828-1.596,1.715-3.014,2.66-4.256
		c0.948-1.24,1.715-2.217,2.306-2.926c3.546-3.663,7.151-6.708,10.817-9.133c3.663-2.422,7.329-4.344,10.995-5.764
		c3.663-1.418,7.298-2.451,10.906-3.103c3.605-0.648,7.121-1.034,10.551-1.153h0.887h2.483c0.59,0,1.712,0.062,3.369,0.178
		c1.654,0.119,3.309,0.475,4.965,1.064c1.654,0.593,3.162,1.479,4.522,2.66c1.358,1.183,2.04,2.779,2.04,4.787
		c0,2.248-0.682,4.553-2.04,6.916c-1.36,2.367-2.69,4.021-3.99,4.966c-0.119,0-0.297,0.119-0.532,0.354
		c0.471,0.709,0.826,1.715,1.064,3.015c0.116,0.238,0.177,0.739,0.177,1.507c0,0.771-0.119,1.627-0.354,2.572
		c-0.119,0.828-0.354,1.626-0.709,2.394c-0.354,0.771-0.829,1.626-1.418,2.571c-2.366,3.547-6.148,6.947-11.35,10.197
		c-5.204,3.252-11.526,5.23-18.975,5.94c-0.474,0.116-0.917,0.177-1.33,0.177c-0.416,0-0.917,0.059-1.507,0.178
		c-4.965,0.235-9.074,0.027-12.325-0.621c-3.253-0.648-5.882-1.445-7.891-2.394c-1.654-0.71-2.896-1.446-3.724-2.217
		c-0.826-0.768-1.418-1.446-1.773-2.039C320.901,125.529,320.724,125.233,320.605,125.114z M334.083,115.715
		c-0.593,2.012-0.416,3.578,0.532,4.699c0.945,1.125,2.128,1.982,3.547,2.572c1.654,0.709,3.663,1.125,6.029,1.241
		c0.59,0,1.18,0.03,1.773,0.089c0.59,0.061,1.181,0.088,1.773,0.088c0.117-0.115,0.471-0.177,1.064-0.177
		c4.492-0.235,8.246-0.887,11.261-1.95c3.015-1.064,5.348-2.067,7.005-3.016c1.654-0.944,3.131-2.066,4.433-3.369
		c1.3-1.299,2.245-2.837,2.837-4.61c0.709-2.009,0.324-3.22-1.153-3.636c-1.479-0.412-3.399-0.383-5.763,0.089
		c-1.064,0-1.981-0.501-2.749-1.507c-0.771-1.004-1.036-1.979-0.798-2.926c0.116-0.826,0.767-1.478,1.95-1.951
		c0.471-0.236,1.003-0.413,1.596-0.532c2.954-0.354,5.614-0.294,7.98,0.177c1.3-0.944,2.186-2.039,2.66-3.279
		c0.471-1.242,0.709-2.098,0.709-2.572c0.354-1.89-1.272-3.219-4.877-3.99c-3.607-0.768-8.955,0.209-16.049,2.926
		c-3.075,1.184-6.001,2.722-8.778,4.611c-2.779,1.893-5.231,3.844-7.359,5.852c-2.128,2.012-3.843,4.021-5.143,6.029
		C335.263,112.584,334.437,114.297,334.083,115.715z"/>
		
	<path d="M518.861,14.813c-3.074,4.139-6.178,8.542-9.309,13.211c-3.135,4.672-6.238,9.429-9.311,14.275
		c-3.076,4.849-6.118,9.695-9.133,14.542c-3.015,4.849-5.883,9.398-8.601,13.655c-0.238,0.474-0.532,0.947-0.887,1.418
		c-0.354,0.474-0.651,0.948-0.887,1.419c3.547-0.826,7.507-2.364,11.882-4.611c4.372-2.245,8.955-4.965,13.742-8.157
		c4.789-3.192,9.635-6.65,14.542-10.374c4.904-3.724,9.634-7.448,14.187-11.172c4.551-3.724,8.807-7.329,12.768-10.817
		c3.961-3.486,7.418-6.531,10.375-9.133c0.709-0.59,2.066-1.654,4.078-3.192c2.01-1.535,4.521-3.192,7.537-4.965
		c3.014-1.773,6.441-3.458,10.285-5.054c3.84-1.596,8.008-2.749,12.502-3.458c0.709-0.116,1.447-0.205,2.217-0.266
		c0.768-0.058,1.564-0.147,2.395-0.266c4.965-0.354,10.844-0.621,17.645-0.798c6.797-0.177,13.947-0.293,21.457-0.354
		c7.506-0.058,15.162-0.058,22.965,0c7.803,0.061,15.1,0.119,21.9,0.177c6.797,0.061,12.885,0.149,18.266,0.266
		c5.377,0.119,9.486,0.177,12.324,0.177c1.535,0.119,2.422,0.651,2.66,1.596c0.115,0.474,0.115,0.947,0,1.418
		c-0.238,1.183-0.563,2.571-0.975,4.167c-0.416,1.596-1.096,3.103-2.041,4.522c-0.947,1.418-2.188,2.602-3.723,3.546
		c-1.539,0.948-3.432,1.419-5.676,1.419c-1.656,0-4.521-0.117-8.6-0.355c-4.08-0.235-8.986-0.501-14.719-0.798
		c-5.736-0.293-12.09-0.621-19.064-0.975c-6.977-0.355-14.186-0.621-21.635-0.798c-7.447-0.177-14.984-0.235-22.609-0.177
		c-7.625,0.061-14.867,0.266-21.723,0.621c-5.676,0.593-10.906,2.159-15.695,4.699c-4.787,2.544-9.664,5.825-14.629,9.842
		c-4.965,4.021-10.197,8.573-15.693,13.655c-5.498,5.084-11.736,10.462-18.709,16.137c-4.966,4.021-9.843,7.359-14.631,10.02
		c-4.787,2.66-9.34,4.818-13.654,6.473c-4.316,1.657-8.307,2.868-11.971,3.635c-3.665,0.77-6.799,1.271-9.398,1.507
		c0.59,3.076,1.654,7.182,3.192,12.324c1.535,5.143,3.751,10.582,6.649,16.314c2.896,5.736,6.563,11.381,10.995,16.936
		c4.434,5.556,9.931,10.344,16.492,14.364c6.562,4.018,14.245,6.916,23.054,8.689c8.805,1.773,19.002,1.654,30.59-0.354
		c2.008-0.594,3.781-0.947,5.32-1.064c1.299-0.119,2.482-0.03,3.547,0.266c1.063,0.295,1.535,1.034,1.418,2.217
		c-0.238,1.654-0.859,2.926-1.861,3.813c-1.006,0.887-2.102,1.566-3.281,2.04c-1.303,0.472-2.779,0.825-4.434,1.063
		c-13.123,0.945-24.648,0.561-34.58-1.152c-9.931-1.715-18.592-4.256-25.979-7.625c-7.391-3.369-13.598-7.332-18.621-11.881
		c-5.025-4.553-9.133-9.338-12.324-14.365c-3.192-5.023-5.675-9.958-7.448-14.807c-1.773-4.846-3.015-9.279-3.724-13.301
		c-4.495,8.513-8.365,16.967-11.616,25.359c-3.253,8.396-5.94,17.141-8.068,26.245c-0.238,0.71-0.355,1.181-0.355,1.419
		c-0.354,1.654-0.859,3.162-1.507,4.521c-0.651,1.357-1.862,1.979-3.635,1.862c-2.012-0.119-3.4-1.006-4.167-2.66
		c-0.77-1.657-1.213-3.015-1.33-4.079c-0.355-3.191-0.297-6.473,0.177-9.842c0.471-3.369,1.064-6.354,1.773-8.955
		c0.826-3.072,1.832-6.322,3.015-9.753c1.18-3.428,2.452-6.827,3.813-10.196c1.358-3.37,2.718-6.62,4.079-9.754
		c1.358-3.131,2.629-5.999,3.813-8.601c1.773-3.663,3.486-7.032,5.143-10.108c1.654-3.073,3.369-6.029,5.143-8.866
		s3.605-5.733,5.497-8.689c1.89-2.954,3.901-6.207,6.029-9.753c2.483-4.018,5.201-8.273,8.158-12.768
		c2.954-4.491,5.968-8.925,9.044-13.3c3.072-4.373,6.146-8.628,9.221-12.768c3.073-4.137,6.029-7.98,8.867-11.527
		c0.59-0.945,1.241-1.654,1.951-2.128c0.59-0.471,1.269-0.709,2.039-0.709c0.768,0,1.565,0.474,2.394,1.418
		c1.773,2.012,2.896,4.079,3.37,6.207C521.639,9.67,520.871,12.095,518.861,14.813z"/>
		
		
		
	<path d="M546.348,85.392c0.117-0.116,0.502-0.532,1.152-1.241c0.648-0.709,1.625-0.709,2.926,0
		c1.891,1.063,3.814,2.513,5.764,4.344c1.951,1.835,2.688,3.636,2.217,5.409c-0.354,1.183-1.035,2.571-2.039,4.167
		c-1.006,1.597-2.1,3.223-3.281,4.877c-1.182,1.657-2.365,3.253-3.545,4.788c-1.184,1.538-2.129,2.898-2.838,4.079
		c-0.238,0.474-0.771,1.418-1.596,2.837c-0.83,1.419-1.064,2.483-0.711,3.192c0.473,0.709,1.27,1.006,2.395,0.887
		c1.123-0.117,2.098-0.294,2.926-0.532c1.535-0.354,3.398-0.887,5.586-1.597c2.188-0.709,4.492-1.623,6.916-2.748
		c2.422-1.122,4.877-2.422,7.359-3.901c2.482-1.478,4.789-3.042,6.916-4.699c0.945-0.71,1.773-1.241,2.482-1.597
		c0.592-0.234,1.123-0.293,1.598-0.177c0.471,0.119,0.768,0.71,0.887,1.773c0,1.302-0.475,2.897-1.42,4.788
		c-0.947,1.893-2.957,3.843-6.029,5.852c-1.537,0.947-3.813,2.306-6.826,4.078c-3.016,1.773-6.385,3.547-10.109,5.32
		c-3.723,1.773-7.598,3.342-11.615,4.699c-4.02,1.361-7.686,2.101-10.994,2.217c-1.18,0.119-2.363-0.058-3.547-0.531
		c-0.945-0.355-1.951-0.914-3.015-1.686c-1.063-0.768-1.89-1.979-2.482-3.635c-0.71-2.128-0.71-4.226,0-6.295
		c0.709-2.067,1.419-3.752,2.128-5.055c0.238-0.471,0.77-1.389,1.596-2.748c0.828-1.357,1.861-3.043,3.104-5.055
		c1.242-2.009,2.66-4.256,4.256-6.738s3.281-4.965,5.055-7.448c0.354-0.59,1.092-1.712,2.217-3.369
		C544.898,87.993,545.756,86.574,546.348,85.392z M554.859,81.135c-0.947-0.471-1.418-1.299-1.418-2.482
		c0-0.471,0.059-1.003,0.178-1.596c0.234-1.299,0.678-2.837,1.33-4.61c0.648-1.773,1.506-3.192,2.57-4.256
		c0.826-0.826,2.275-1.418,4.346-1.773c2.066-0.355,4.195-0.502,6.383-0.443c2.188,0.061,4.168,0.416,5.941,1.064
		c1.773,0.651,2.895,1.568,3.369,2.749c0.355,1.064,0.027,2.247-0.975,3.547c-1.006,1.302-2.307,2.602-3.902,3.901
		c-1.596,1.303-3.311,2.483-5.143,3.547c-1.834,1.063-3.342,1.773-4.521,2.127c-1.064,0.238-1.893,0.238-2.482,0
		c-0.709-0.115-1.596-0.293-2.66-0.531C556.811,82.141,555.805,81.729,554.859,81.135z"/>
		
		
	<path d="M617.988,105.253c0.945-0.71,1.773-1.241,2.482-1.597c0.592-0.234,1.123-0.293,1.596-0.177
		c0.473,0.119,0.768,0.71,0.887,1.773c0,1.302-0.473,2.897-1.418,4.788c-0.947,1.893-2.957,3.843-6.029,5.852
		c-1.303,0.828-3.164,2.012-5.586,3.547c-2.424,1.537-5.143,3.104-8.158,4.699c-3.014,1.596-6.205,3.134-9.574,4.611
		c-3.371,1.479-6.65,2.57-9.844,3.28c-0.947,0.238-1.715,0.327-2.305,0.266c-0.592-0.058-1.006-0.089-1.24-0.089
		c-2.719-0.59-4.729-1.712-6.029-3.369c-1.301-1.654-2.246-3.131-2.838-4.434h0.178c-0.592-1.063-0.768-2.305-0.533-3.724
		c0-0.71,0.119-1.419,0.355-2.128c0-0.235,0.029-0.412,0.088-0.531c0.061-0.117,0.09-0.295,0.09-0.533
		c0.354-1.063,0.709-1.95,1.063-2.66c0.711-1.889,1.508-3.87,2.395-5.939c0.887-2.067,1.805-3.99,2.748-5.764
		c0.119-0.236,0.205-0.471,0.268-0.709c0.057-0.236,0.205-0.472,0.443-0.71c2.598-4.847,5.289-9.576,8.068-14.187
		c2.775-4.611,5.701-9.222,8.777-13.832l-12.945-0.177c-0.947,0-1.715-0.147-2.305-0.443c-0.594-0.294-1.064-0.621-1.42-0.976
		c-0.473-0.471-0.768-1.003-0.887-1.596c-0.471-0.826-0.59-1.596-0.354-2.306c0.119-0.59,0.504-1.152,1.152-1.685
		c0.648-0.532,1.801-0.798,3.459-0.798h18.619c1.535-2.245,3.486-4.904,5.852-7.98c2.363-3.073,4.789-6.207,7.271-9.399
		c2.482-3.192,4.934-6.323,7.359-9.398c2.422-3.073,4.521-5.675,6.295-7.803c0.355-0.354,0.768-0.709,1.242-1.064
		c0.943-0.709,1.949-0.709,3.014,0c0.355,0.238,0.914,0.621,1.686,1.153c0.768,0.532,1.564,1.241,2.393,2.128
		c0.826,0.887,1.625,1.892,2.395,3.015c0.768,1.125,1.27,2.335,1.508,3.635c0.354,0.354,0.234,0.829-0.355,1.418
		c-1.303,1.302-2.898,3.015-4.787,5.143c-1.893,2.128-3.844,4.344-5.852,6.65c-2.012,2.305-3.963,4.583-5.854,6.827
		c-1.893,2.247-3.369,4.079-4.434,5.498l123.602-0.355c0.826,0,1.654,0.416,2.482,1.242c0.826,0.828,1.535,1.804,2.129,2.926
		c0.59,1.125,1.092,2.217,1.508,3.281c0.412,1.064,0.621,1.834,0.621,2.305c0,0.948-0.355,1.538-1.064,1.773
		c-0.355,0.119-0.709,0.177-1.064,0.177l-134.242-2.837c-2.012,2.957-3.932,5.883-5.762,8.778c-1.836,2.898-3.637,5.764-5.41,8.601
		c-0.238,0.474-0.592,1.063-1.063,1.773c-2.012,3.431-4.021,7.005-6.029,10.729c-2.012,3.724-3.963,7.302-5.854,10.729
		c-0.238,0.593-0.473,1.006-0.709,1.241c-0.238,0.594-0.416,1.125-0.531,1.596c-0.119,0.475-0.061,0.887,0.178,1.242
		c0.354,0.709,1.121,1.006,2.305,0.887c1.18-0.117,2.127-0.294,2.838-0.532c1.535-0.354,3.428-0.944,5.674-1.773
		c2.244-0.825,4.611-1.862,7.094-3.104s4.965-2.63,7.447-4.167C613.555,108.506,615.861,106.91,617.988,105.253z"/>
		
		
		
		
	<path d="M696.014,103.656c0.59-0.234,1.123-0.293,1.596-0.177c0.471,0.119,0.768,0.71,0.887,1.773
		c0,1.302-0.473,2.897-1.418,4.788c-0.947,1.893-2.957,3.843-6.029,5.852c-0.355,0.238-0.709,0.504-1.064,0.799
		c-0.354,0.296-0.828,0.563-1.418,0.797l-0.178,0.178c-0.355,0.238-1.568,0.887-3.635,1.951c-2.07,1.063-4.73,2.336-7.98,3.813
		c-3.254,1.479-7.006,2.956-11.262,4.434c-4.256,1.479-8.75,2.689-13.477,3.635c-3.547,0.945-7.094,1.477-10.641,1.596
		c-5.557,0.471-10.08,0.355-13.564-0.354c-3.49-0.709-6.238-1.534-8.246-2.482c-1.535-0.71-2.719-1.446-3.547-2.217
		c-0.826-0.768-1.42-1.446-1.773-2.039c-0.236-0.235-0.383-0.413-0.443-0.532c-0.059-0.116-0.146-0.235-0.266-0.354
		c-0.236-0.591-0.414-1.092-0.533-1.507c-0.115-0.414-0.234-0.799-0.354-1.153c-0.117-0.472-0.178-0.825-0.178-1.063
		c-0.355-2.129-0.324-4.137,0.088-6.029c0.416-1.891,1.037-3.636,1.863-5.232c0.828-1.596,1.684-3.014,2.57-4.256
		c0.887-1.24,1.623-2.217,2.217-2.926c3.547-3.663,7.152-6.708,10.816-9.133c3.664-2.422,7.359-4.344,11.084-5.764
		c3.725-1.418,7.387-2.451,10.994-3.103c3.605-0.648,7.121-1.034,10.553-1.153h0.887h2.482c0.59,0,1.684,0.062,3.281,0.178
		c1.596,0.119,3.25,0.475,4.965,1.064c1.713,0.593,3.219,1.479,4.521,2.66c1.299,1.183,1.951,2.779,1.951,4.787
		c0,2.248-0.652,4.553-1.951,6.916c-1.303,2.367-2.602,4.021-3.9,4.966c-0.711,0.593-1.568,0.948-2.572,1.063
		c-1.006,0.119-1.98,0.089-2.926-0.088c-0.947-0.178-1.746-0.413-2.395-0.709c-0.65-0.295-1.035-0.561-1.152-0.799
		c-0.119-0.471,0.117-0.945,0.709-1.418l1.064-0.71c1.535-0.944,2.6-2.128,3.191-3.546c0.59-1.42,0.945-2.422,1.064-3.016
		c0.236-1.89-1.418-3.219-4.965-3.99c-3.547-0.768-8.867,0.209-15.961,2.926c-3.191,1.184-6.178,2.722-8.955,4.611
		c-2.779,1.893-5.23,3.844-7.359,5.852c-2.127,2.012-3.844,4.021-5.143,6.029c-1.303,2.012-2.127,3.725-2.482,5.143
		c-0.594,2.012-0.385,3.578,0.621,4.699c1.002,1.125,2.217,1.982,3.635,2.572c1.654,0.709,3.605,1.125,5.852,1.241
		c1.891,0.238,3.842,0.238,5.854,0c3.191-0.116,6.383-0.472,9.574-1.063c3.193-0.591,6.266-1.358,9.223-2.307
		c5.32-1.653,10.047-3.427,14.186-5.319c4.137-1.89,7.271-3.485,9.398-4.788c0.473-0.235,0.857-0.443,1.154-0.621
		c0.293-0.177,0.559-0.382,0.797-0.62h0.178h0.178c0-0.235,0.115-0.354,0.354-0.354h0.178v-0.178h0.178l5.32-3.724
		C694.535,104.543,695.305,104.012,696.014,103.656z"/>
		
		
		
	<path d="M692.998,135.045c-1.654,0.235-3.014-0.119-4.078-1.064c-1.064-0.947-1.891-1.95-2.482-3.014
		c-0.711-1.064-1.064-2.364-1.064-3.902c0-1.535,0.178-3.072,0.531-4.61c0.355-1.535,0.799-3.073,1.33-4.61
		c0.533-1.535,1.037-2.838,1.508-3.902c0.828-2.127,1.686-4.194,2.572-6.206c0.885-2.009,1.861-4.018,2.926-6.029
		c12.174-22.225,26.244-43.092,42.205-62.599c0.354-0.354,0.768-0.709,1.24-1.064c0.945-0.709,1.951-0.709,3.016,0
		c0.354,0.238,0.914,0.621,1.684,1.153c0.768,0.532,1.598,1.241,2.484,2.128c0.885,0.887,1.684,1.893,2.393,3.015
		c0.709,1.125,1.242,2.336,1.596,3.635c0,0.119-0.029,0.327-0.088,0.621c-0.061,0.296-0.207,0.563-0.443,0.798
		c-6.385,6.268-12.209,13.184-17.467,20.748c-5.262,7.567-10.258,15.251-14.984,23.054c-1.773,3.075-3.52,6.118-5.232,9.132
		c-1.715,3.016-3.4,6.061-5.055,9.133c3.664-3.309,7.893-6.826,12.68-10.551c4.789-3.725,9.547-7.063,14.275-10.02
		c4.729-2.953,9.223-5.112,13.479-6.473c4.256-1.357,7.74-1.27,10.463,0.266c2.363,1.184,4.432,2.425,6.205,3.725
		c1.535,1.184,2.865,2.482,3.99,3.901c1.123,1.419,1.447,2.778,0.977,4.079c-0.711,2.246-2.189,4.787-4.434,7.625
		c-2.248,2.837-4.08,5.439-5.498,7.803c-0.238,0.474-0.77,1.418-1.596,2.837c-0.828,1.419-1.064,2.483-0.709,3.192
		c0.471,0.709,1.299,1.006,2.482,0.887c1.18-0.117,2.127-0.294,2.838-0.532c1.535-0.354,3.396-0.887,5.586-1.597
		c2.186-0.709,4.521-1.623,7.004-2.748c2.482-1.122,4.965-2.422,7.447-3.901c2.484-1.478,4.789-3.042,6.916-4.699
		c0.826-0.71,1.598-1.241,2.307-1.597c0.59-0.234,1.121-0.293,1.596-0.177c0.471,0.119,0.768,0.71,0.887,1.773
		c0,1.302-0.475,2.897-1.418,4.788c-0.949,1.893-2.957,3.843-6.029,5.852c-1.539,0.947-3.814,2.306-6.828,4.078
		c-3.016,1.773-6.385,3.547-10.107,5.32c-3.725,1.773-7.598,3.342-11.615,4.699c-4.021,1.361-7.688,2.101-10.996,2.217
		c-1.182,0.119-2.365-0.058-3.547-0.531c-0.947-0.355-1.949-0.914-3.014-1.686c-1.064-0.768-1.893-1.979-2.482-3.635
		c-0.709-2.128-0.709-4.226,0-6.295c0.709-2.067,1.418-3.752,2.127-5.055c0.471-0.945,1.773-3.191,3.902-6.738
		c2.127-3.547,4.965-7.861,8.512-12.945c0.236-0.709,0.412-1.3,0.531-1.773c0.236-1.181-0.238-1.773-1.418-1.773
		c-0.475,0-2.482,0.771-6.029,2.305c-3.547,1.539-7.922,3.963-13.123,7.271c-5.203,3.311-10.936,7.537-17.201,12.68
		c-6.268,5.143-12.355,11.26-18.266,18.354c-0.119,0.235-0.178,0.383-0.178,0.443c0,0.059-0.061,0.205-0.176,0.443
		c-0.355,0.709-0.83,1.241-1.42,1.596C693.354,134.984,693.117,135.045,692.998,135.045z"/>
		
		
		
		
	<path d="M858.096,117.666c-0.355,0.238-1.568,0.887-3.637,1.951c-2.068,1.063-4.729,2.336-7.979,3.813
		c-3.254,1.479-7.035,2.956-11.35,4.434c-4.316,1.479-8.84,2.689-13.566,3.635c-3.311,0.828-6.857,1.357-10.641,1.596
		c-5.438,0.471-9.902,0.355-13.389-0.354c-3.488-0.709-6.236-1.534-8.246-2.482c-1.654-0.71-2.895-1.446-3.723-2.217
		c-0.826-0.768-1.42-1.446-1.773-2.039c-0.236-0.472-0.414-0.768-0.533-0.887c-0.59-1.063-0.943-1.95-1.063-2.66
		c-0.117-0.472-0.178-0.825-0.178-1.063c-0.355-2.129-0.324-4.137,0.088-6.029c0.416-1.891,1.037-3.636,1.863-5.232
		c0.828-1.596,1.715-3.014,2.658-4.256c0.949-1.24,1.713-2.217,2.307-2.926c3.547-3.663,7.15-6.708,10.816-9.133
		c3.664-2.422,7.33-4.344,10.996-5.764c3.662-1.418,7.297-2.451,10.904-3.103c3.605-0.648,7.121-1.034,10.553-1.153h0.887h2.482
		h0.178c1.299,0.119,3.072,0.386,5.318,0.799c2.246,0.416,4.08,1.271,5.498,2.57c0.945,0.829,1.713,2.012,2.305,3.547
		c0.711,2.367,0.738,4.584,0.09,6.65c-0.652,2.07-1.508,3.873-2.572,5.408c-2.721,3.431-6.326,6.268-10.816,8.513
		c-4.494,2.247-9.164,4.021-14.01,5.319c-4.85,1.303-9.486,2.217-13.92,2.749s-7.893,0.859-10.375,0.976
		c0.59,0.947,1.42,1.685,2.482,2.217c1.064,0.531,2.129,0.917,3.193,1.152c1.299,0.355,2.598,0.532,3.9,0.532
		c1.773,0.238,3.664,0.238,5.676,0c3.307-0.116,6.529-0.472,9.664-1.063c3.131-0.591,6.234-1.358,9.311-2.307
		c5.318-1.653,10.018-3.427,14.098-5.319c4.078-1.89,7.24-3.485,9.486-4.788c0.355-0.235,0.709-0.443,1.064-0.621
		c0.355-0.177,0.648-0.382,0.887-0.62h0.178c0.234-0.235,0.412-0.354,0.531-0.354v-0.178h0.178c1.889-1.18,3.662-2.422,5.32-3.724
		c0.826-0.71,1.596-1.241,2.305-1.597c0.59-0.234,1.152-0.293,1.686-0.177c0.531,0.119,0.797,0.71,0.797,1.773
		c0.117,1.302-0.297,2.897-1.24,4.788c-0.949,1.893-2.957,3.843-6.029,5.852c-0.711,0.594-1.596,1.125-2.66,1.596V117.666z
		 M820.5,94.08c-2.721,1.064-5.262,2.336-7.625,3.813c-2.365,1.479-4.521,3.075-6.473,4.788c-1.951,1.715-3.635,3.43-5.055,5.143
		c-1.418,1.715-2.482,3.281-3.191,4.699c2.129-0.235,5.023-0.621,8.689-1.152c3.664-0.532,7.506-1.27,11.527-2.217
		c4.018-0.945,7.859-2.187,11.525-3.725c3.664-1.535,6.563-3.369,8.689-5.497l1.064-1.063c0.471-0.709,0.826-1.3,1.064-1.773
		c0.59-0.945,0.709-1.951,0.354-3.016c-0.238-0.825-0.738-1.445-1.506-1.861c-0.771-0.413-1.508-0.736-2.217-0.975
		c-1.773-0.355-4.08-0.355-6.916,0C827.594,91.598,824.283,92.546,820.5,94.08z"/>
		
		
		
		
	<path d="M908.104,115.006c0.471-0.945,1.742-3.191,3.813-6.738c2.066-3.547,4.877-7.861,8.422-12.945
		c0.355-0.709,0.592-1.3,0.711-1.773c0.234-1.181-0.238-1.773-1.42-1.773c-0.473,0-2.305,0.709-5.496,2.128
		c-3.193,1.419-7.184,3.696-11.971,6.827c-4.787,3.135-10.107,7.094-15.961,11.882c-5.852,4.788-11.676,10.435-17.467,16.935
		c-0.238,0.238-0.504,0.475-0.797,0.71c-0.297,0.238-0.621,0.532-0.977,0.887c-0.119,0-0.238,0.062-0.354,0.177l-0.178,0.178
		c-0.119,0-0.238,0.061-0.355,0.178h-0.354c-0.592,0.354-1.123,0.531-1.596,0.531c-0.945-0.116-2.307-0.501-4.08-1.152
		c-1.773-0.648-3.131-2.217-4.078-4.699c-0.709-2.128-0.736-4.226-0.088-6.295c0.65-2.067,1.391-3.752,2.215-5.055
		c0.238-0.471,0.771-1.389,1.598-2.748c0.828-1.357,1.861-3.043,3.104-5.055c1.24-2.009,2.658-4.256,4.256-6.738
		c1.596-2.482,3.279-4.965,5.053-7.448c0.236-0.59,0.945-1.712,2.129-3.369c1.18-1.654,2.066-3.073,2.66-4.256
		c0-0.116,0.354-0.532,1.063-1.241c0.711-0.709,1.713-0.709,3.016,0c0.826,0.593,1.773,1.241,2.838,1.95
		c1.063,0.71,2.008,1.507,2.836,2.394c0.826,0.887,1.479,1.805,1.951,2.75c0.471,0.947,0.533,1.834,0.178,2.659
		c-0.355,1.063-0.975,2.336-1.861,3.813c-0.887,1.479-1.863,2.955-2.926,4.433c-1.064,1.479-2.129,2.956-3.193,4.434
		c-1.064,1.479-2.012,2.81-2.838,3.989c3.664-3.309,7.742-6.826,12.236-10.551c4.492-3.725,8.955-6.943,13.389-9.664
		c4.434-2.719,8.629-4.7,12.592-5.941c3.959-1.241,7.24-1.152,9.842,0.266c2.363,1.184,4.434,2.425,6.207,3.725
		c1.535,1.184,2.836,2.482,3.9,3.901s1.42,2.778,1.064,4.079c-0.828,2.246-2.336,4.787-4.521,7.625
		c-2.189,2.837-3.99,5.439-5.41,7.803c-0.238,0.474-0.77,1.418-1.596,2.837c-0.828,1.419-1.064,2.483-0.709,3.192
		s1.123,1.006,2.305,0.887c1.182-0.117,2.129-0.294,2.838-0.532c1.535-0.354,3.396-0.887,5.586-1.597
		c2.186-0.709,4.521-1.623,7.006-2.748c2.482-1.122,4.965-2.422,7.447-3.901c2.482-1.478,4.787-3.042,6.916-4.699
		c0.826-0.71,1.596-1.241,2.305-1.597c0.59-0.234,1.152-0.293,1.686-0.177c0.531,0.119,0.797,0.71,0.797,1.773
		c0.117,1.302-0.295,2.897-1.24,4.788c-0.947,1.893-2.957,3.843-6.029,5.852c-1.539,0.947-3.844,2.306-6.916,4.078
		c-3.076,1.773-6.473,3.547-10.197,5.32s-7.566,3.342-11.527,4.699c-3.961,1.361-7.598,2.101-10.904,2.217
		c-1.184,0.119-2.367-0.058-3.547-0.531c-0.947-0.355-1.951-0.914-3.016-1.686c-1.064-0.768-1.893-1.979-2.482-3.635
		c-0.709-2.128-0.74-4.226-0.088-6.295C906.535,117.993,907.273,116.309,908.104,115.006z"/>
		
		
</g>
</svg>
